<svg xmlns="http://www.w3.org/2000/svg" width="40" height="40" viewBox="0 0 40 40" fill="none">
  <path d="M10.6632 19.6855C10.0106 19.6855 9.38469 19.9448 8.92323 20.4063C8.46176 20.8677 8.20251 21.4936 8.20251 22.1462C8.20251 22.7988 8.46176 23.4247 8.92323 23.8862C9.38469 24.3476 10.0106 24.6069 10.6632 24.6069C11.3158 24.6069 11.9417 24.3476 12.4031 23.8862C12.8646 23.4247 13.1238 22.7988 13.1238 22.1462C13.1238 21.4936 12.8646 20.8677 12.4031 20.4063C11.9417 19.9448 11.3158 19.6855 10.6632 19.6855ZM28.708 19.6855C28.0554 19.6855 27.4296 19.9448 26.9681 20.4063C26.5066 20.8677 26.2474 21.4936 26.2474 22.1462C26.2474 22.7988 26.5066 23.4247 26.9681 23.8862C27.4296 24.3476 28.0554 24.6069 28.708 24.6069C29.3607 24.6069 29.9865 24.3476 30.448 23.8862C30.9095 23.4247 31.1687 22.7988 31.1687 22.1462C31.1687 21.4936 30.9095 20.8677 30.448 20.4063C29.9865 19.9448 29.3607 19.6855 28.708 19.6855Z" fill="white"/>
  <path d="M34.0725 15.0267L31.8251 8.30093C31.5 7.31903 30.8727 6.46506 30.033 5.86107C29.1933 5.25709 28.1842 4.93401 27.1499 4.93803H12.2054C11.1717 4.93651 10.1637 5.26056 9.32452 5.86419C8.48532 6.46782 7.85752 7.32039 7.53017 8.30093L5.28276 15.0267C4.10164 15.5189 3.26501 16.7 3.26501 18.0452V26.2474C3.26501 27.4613 3.9376 28.5112 4.90546 29.0689V32.8092C4.90546 33.7114 5.64366 34.4496 6.5459 34.4496H8.18634C9.08859 34.4496 9.82679 33.7114 9.82679 32.8092V29.5283H29.5121V32.8092C29.5121 33.7114 30.2503 34.4496 31.1525 34.4496H32.793C33.6952 34.4496 34.4334 33.7114 34.4334 32.8092V29.0689C34.9293 28.7827 35.3416 28.3716 35.6294 27.8766C35.9172 27.3816 36.0704 26.8199 36.0739 26.2474V18.0452C36.0739 16.6836 35.2372 15.5189 34.0561 15.0267H34.0725ZM12.2054 8.20251H27.1663C27.5102 8.20162 27.8457 8.30884 28.1253 8.50901C28.405 8.70918 28.6146 8.99218 28.7247 9.31801L30.5456 14.7643H8.84252L10.6634 9.31801C10.7735 8.99218 10.9831 8.70918 11.2628 8.50901C11.5424 8.30884 11.8779 8.20162 12.2218 8.20251H12.2054ZM6.5623 26.2474V18.0452H32.8094V26.2474H6.5623Z" fill="white"/>
</svg>